<?xml version="1.0" encoding="utf-8"?>
<!-- Generator: Adobe Illustrator 22.1.0, SVG Export Plug-In . SVG Version: 6.00 Build 0)  -->
<svg version="1.1" id="Layer_1" xmlns="http://www.w3.org/2000/svg" xmlns:xlink="http://www.w3.org/1999/xlink" x="0px" y="0px"
	 viewBox="0 0 61 61.8" style="enable-background:new 0 0 61 61.8;" xml:space="preserve">
<style type="text/css">
	.st0{fill:#43B1B0;}
	.st1{fill:#F37E77;}
	.st2{fill:#FFFFFF;}
	.st3{fill:#FBB054;}
</style>
<rect x="3.2" y="3.4" class="st3" width="54.4" height="54.4"/>
<g>
	<path class="st2" d="M26.1,45.9c0-1.4,0.4-2.5,1.2-3.2c0.8-0.7,1.9-1.1,3.3-1c1.4,0,2.5,0.4,3.2,1.2c0.8,0.8,1.1,1.8,1.1,3.2
		c0,1.3-0.4,2.4-1.2,3.1c-0.8,0.8-1.9,1.1-3.3,1.1c-1.4,0-2.5-0.4-3.3-1.2C26.4,48.3,26,47.2,26.1,45.9z M33.8,37.3l-6.2-0.1
		l-0.9-24.9l8.8,0.1L33.8,37.3z"/>
</g>
</svg>
